<svg width="15" height="15" viewBox="0 0 15 15" fill="none" xmlns="http://www.w3.org/2000/svg">
<path id="Vector" d="M15 7.5C15 9.48912 14.2098 11.3968 12.8033 12.8033C11.3968 14.2098 9.48912 15 7.5 15C5.51088 15 3.60322 14.2098 2.1967 12.8033C0.790176 11.3968 0 9.48912 0 7.5C0 5.51088 0.790176 3.60322 2.1967 2.1967C3.60322 0.790176 5.51088 0 7.5 0C9.48912 0 11.3968 0.790176 12.8033 2.1967C14.2098 3.60322 15 5.51088 15 7.5ZM7.5 3.28125C7.5 3.15693 7.45061 3.0377 7.36271 2.94979C7.2748 2.86189 7.15557 2.8125 7.03125 2.8125C6.90693 2.8125 6.7877 2.86189 6.69979 2.94979C6.61189 3.0377 6.5625 3.15693 6.5625 3.28125V8.4375C6.56253 8.52012 6.58439 8.60127 6.62588 8.67273C6.66737 8.74418 6.72701 8.80339 6.79875 8.84437L10.08 10.7194C10.1877 10.7776 10.3139 10.7913 10.4315 10.7577C10.5492 10.7241 10.6491 10.6458 10.7099 10.5396C10.7706 10.4333 10.7873 10.3075 10.7565 10.189C10.7257 10.0706 10.6498 9.96885 10.545 9.90563L7.5 8.16562V3.28125Z" fill="#046E1B"/>
</svg>
