<svg width="15" height="15" viewBox="0 0 15 15" fill="none" xmlns="http://www.w3.org/2000/svg">
<path id="Vector" d="M15 10.7143C15 10.4301 14.8871 10.1576 14.6862 9.95667C14.4853 9.75574 14.2127 9.64286 13.9286 9.64286H11.7857C11.5016 9.64286 11.229 9.75574 11.0281 9.95667C10.8272 10.1576 10.7143 10.4301 10.7143 10.7143V13.9286C10.7143 14.2127 10.8272 14.4853 11.0281 14.6862C11.229 14.8871 11.5016 15 11.7857 15H13.9286C14.2127 15 14.4853 14.8871 14.6862 14.6862C14.8871 14.4853 15 14.2127 15 13.9286V10.7143ZM9.64286 6.42857C9.64286 6.14441 9.52997 5.87189 9.32904 5.67096C9.12811 5.47003 8.85559 5.35714 8.57143 5.35714H6.42857C6.14441 5.35714 5.87189 5.47003 5.67096 5.67096C5.47003 5.87189 5.35714 6.14441 5.35714 6.42857V13.9286C5.35714 14.2127 5.47003 14.4853 5.67096 14.6862C5.87189 14.8871 6.14441 15 6.42857 15H8.57143C8.85559 15 9.12811 14.8871 9.32904 14.6862C9.52997 14.4853 9.64286 14.2127 9.64286 13.9286V6.42857ZM4.28572 1.07143C4.28572 0.787268 4.17283 0.514746 3.9719 0.313814C3.77097 0.112882 3.49845 0 3.21429 0H1.07143C0.787269 0 0.514747 0.112882 0.313815 0.313814C0.112883 0.514746 0 0.787268 0 1.07143V13.9286C0 14.2127 0.112883 14.4853 0.313815 14.6862C0.514747 14.8871 0.787269 15 1.07143 15H3.21429C3.49845 15 3.77097 14.8871 3.9719 14.6862C4.17283 14.4853 4.28572 14.2127 4.28572 13.9286V1.07143Z" fill="#046E1B"/>
</svg>
