<svg width="15" height="15" viewBox="0 0 15 15" fill="none" xmlns="http://www.w3.org/2000/svg">
<path id="Vector" d="M7.5 15C5.51088 15 3.60322 14.2098 2.1967 12.8033C0.790176 11.3968 0 9.48912 0 7.5C0 5.51088 0.790176 3.60322 2.1967 2.1967C3.60322 0.790176 5.51088 0 7.5 0C9.48912 0 11.3968 0.790176 12.8033 2.1967C14.2098 3.60322 15 5.51088 15 7.5C15 9.48912 14.2098 11.3968 12.8033 12.8033C11.3968 14.2098 9.48912 15 7.5 15ZM8.29406 7.36406C8.81367 7.17712 9.25066 6.81285 9.5281 6.3354C9.80553 5.85794 9.90562 5.29791 9.81074 4.75391C9.71586 4.20991 9.43209 3.71683 9.00941 3.36148C8.58672 3.00613 8.05221 2.81131 7.5 2.81131C6.94779 2.81131 6.41328 3.00613 5.99059 3.36148C5.56791 3.71683 5.28414 4.20991 5.18926 4.75391C5.09438 5.29791 5.19447 5.85794 5.4719 6.3354C5.74934 6.81285 6.18633 7.17712 6.70594 7.36406C5.12906 7.74469 3.75 9.16406 3.75 10.3125C3.75 10.6828 3.88594 11.2453 4.6875 11.2453H10.3125C11.1141 11.2453 11.25 10.6828 11.25 10.3125C11.25 9.165 9.87187 7.74375 8.29406 7.36406Z" fill="#046E1B"/>
</svg>
